<svg width="128" height="128" viewBox="0 0 128 128" fill="none" xmlns="http://www.w3.org/2000/svg">
<path d="M49.875 93.7279V92.3074L54.9034 84.3642H56.0227V86.4551H55.3125L51.7159 92.1483V92.2392H58.608V93.7279H49.875ZM55.392 96.0006V93.2961L55.4034 92.6483V84.3642H57.0682V96.0006H55.392ZM64.6392 96.1938C63.7415 96.19 62.9744 95.9533 62.3381 95.4836C61.7017 95.0139 61.215 94.3301 60.8778 93.4324C60.5407 92.5347 60.3722 91.4533 60.3722 90.1881C60.3722 88.9267 60.5407 87.8491 60.8778 86.9551C61.2188 86.0612 61.7074 85.3794 62.3438 84.9097C62.9839 84.44 63.7491 84.2051 64.6392 84.2051C65.5294 84.2051 66.2926 84.4419 66.929 84.9154C67.5653 85.3851 68.0521 86.0669 68.3892 86.9608C68.7301 87.851 68.9006 88.9267 68.9006 90.1881C68.9006 91.457 68.732 92.5404 68.3949 93.4381C68.0578 94.332 67.571 95.0158 66.9347 95.4892C66.2983 95.9589 65.5331 96.1938 64.6392 96.1938ZM64.6392 94.6767C65.4271 94.6767 66.0426 94.2923 66.4858 93.5233C66.9328 92.7544 67.1562 91.6426 67.1562 90.1881C67.1562 89.2222 67.054 88.4059 66.8494 87.7392C66.6487 87.0688 66.3589 86.5612 65.9801 86.2165C65.6051 85.868 65.1581 85.6938 64.6392 85.6938C63.8551 85.6938 63.2396 86.0801 62.7926 86.8529C62.3456 87.6256 62.1203 88.7373 62.1165 90.1881C62.1165 91.1578 62.2169 91.9779 62.4176 92.6483C62.6222 93.315 62.9119 93.8207 63.2869 94.1654C63.6619 94.5063 64.1127 94.6767 64.6392 94.6767ZM70.6719 93.7279V92.3074L75.7003 84.3642H76.8196V86.4551H76.1094L72.5128 92.1483V92.2392H79.4048V93.7279H70.6719ZM76.1889 96.0006V93.2961L76.2003 92.6483V84.3642H77.8651V96.0006H76.1889Z" fill="white"/>
<mask id="mask0_2736_3243" style="mask-type:luminance" maskUnits="userSpaceOnUse" x="38" y="28" width="53" height="48">
<path d="M90.2739 28H38V76H90.2739V28Z" fill="white"/>
</mask>
<g mask="url(#mask0_2736_3243)">
<path fill-rule="evenodd" clip-rule="evenodd" d="M64.7123 28.0195C63.8044 28.0195 63.0685 28.7556 63.0685 29.6634V43.3638H53.4521C52.5442 43.3638 51.8082 44.0998 51.8082 45.0076V55.4209V56.2429H53.4521V55.4209V45.0076H63.0685V54.599C63.0685 55.5069 63.8044 56.2429 64.7123 56.2429H75.1506H75.9725V55.4209V45.0076C75.9725 44.0998 75.2366 43.3638 74.3287 43.3638H64.7123V40.8673H74.3287C75.2366 40.8673 75.9725 40.1313 75.9725 39.2235V28.8414V28.0195H75.1506H64.7123ZM64.7123 54.599V45.0076H74.3287V54.599H64.7123ZM74.3287 39.2235H64.7123V29.6634H74.3287V39.2235ZM39.6438 66.1299C39.6438 65.2219 40.3799 64.486 41.2877 64.486H42.1096C43.0175 64.486 43.7534 65.2219 43.7534 66.1299V67.6093C43.7534 68.5172 43.0175 69.2531 42.1096 69.2531H39.6438V66.1299ZM42.1096 70.8969H39.6438V75.1709V75.9928H38V75.1709V70.8969V69.2531V66.1299C38 64.314 39.472 62.8422 41.2877 62.8422H42.1096C43.9253 62.8422 45.3972 64.314 45.3972 66.1299V67.6093C45.3972 69.4251 43.9253 70.8969 42.1096 70.8969ZM84.5205 66.1299C84.5205 65.2219 85.2564 64.486 86.1643 64.486H86.9862C87.8941 64.486 88.63 65.2219 88.63 66.1299V75.0065V75.8285H90.2739V75.0065V66.1299C90.2739 64.314 88.802 62.8422 86.9862 62.8422H86.1643C84.3485 62.8422 82.8766 64.314 82.8766 66.1299V75.0065V75.8285H84.5205V75.0065V66.1299ZM71.6985 62.8422H72.5205H75.8081C77.6239 62.8422 79.0958 64.314 79.0958 66.1299V72.5408C79.0958 74.3566 77.6239 75.8285 75.8081 75.8285H72.5205H71.6985V75.0065V63.6641V62.8422ZM73.3424 64.486V74.1846H75.8081C76.716 74.1846 77.4519 73.4487 77.4519 72.5408V66.1299C77.4519 65.2219 76.716 64.486 75.8081 64.486H73.3424ZM62 66.1299C62 65.2219 62.7359 64.486 63.6438 64.486H64.4657C65.3735 64.486 66.1096 65.2219 66.1096 66.1299V67.6093C66.1096 68.5172 65.3735 69.2531 64.4657 69.2531H64.3163H62V66.1299ZM64.397 71.4299C64.7839 71.9058 65.1742 72.4368 65.358 72.8152C65.4214 72.946 65.4903 73.1836 65.5484 73.5211C65.6043 73.8448 65.6417 74.2073 65.6662 74.5541C65.6903 74.8991 65.7012 75.2178 65.7058 75.4507C65.7081 75.5668 65.7088 75.6606 65.7091 75.7248C65.7091 75.7568 65.7091 75.7815 65.7089 75.7977V75.8155V75.8171V75.8178V75.8194V75.8199V75.8201C65.7089 75.8201 65.7089 75.8201 65.7099 75.8201H65.7151L65.752 75.8204L67.3526 75.8394L66.5307 75.8285C67.3526 75.8394 67.3526 75.8391 67.3526 75.8391V75.8388V75.8382V75.8368V75.8366V75.8363V75.8359V75.834L67.3527 75.8298V75.8275L67.3529 75.8066C67.3531 75.7869 67.3531 75.7584 67.3531 75.7225C67.3531 75.6505 67.3525 75.5476 67.3503 75.4218C67.3458 75.1705 67.3348 74.8242 67.3085 74.4447C67.2822 74.0671 67.2401 73.6456 67.1713 73.2473C67.1048 72.8623 67.0038 72.4413 66.8366 72.0971C66.5974 71.6046 66.194 71.0477 65.8383 70.5976C66.9686 70.0775 67.7534 68.935 67.7534 67.6093V66.1299C67.7534 64.314 66.2814 62.8422 64.4657 62.8422H63.6438C61.828 62.8422 60.3561 64.314 60.3561 66.1299V69.2531V70.075V75.8285H62V70.8969H63.9477C64.0698 71.0368 64.2279 71.222 64.397 71.4299ZM52.4657 64.486C51.5578 64.486 50.8219 65.2219 50.8219 66.1299V69.2531H54.9315V66.1299C54.9315 65.2219 54.1956 64.486 53.2877 64.486H52.4657ZM56.5753 69.2531V66.1299C56.5753 64.314 55.1035 62.8422 53.2877 62.8422H52.4657C50.65 62.8422 49.1781 64.314 49.1781 66.1299V69.2531V70.075V75.8285H50.8219V70.8969H54.9315V75.8285H56.5753V70.075V69.2531Z" fill="white"/>
</g>
</svg>
